# xmcd
#
# Track frame offsets: 
#        150
#        14683
#        27186
#        43175
#        56349
#        73443
#        86799
#        103451
#        119254
#        133156
#        147782
#        161413
#        175696
#        191076
#
# Disc length: 2875 seconds
#
# Revision: 1
# Processed by: cddbd v1.5.2PL0 Copyright (c) Steve Scherf et al.
# Submitted via: ExactAudioCopyFreeDBPlugin 1.0
#
DISCID=d00b390e
DTITLE=Linda Feller - Liebe wie im Rosengarten
DYEAR=2008
DGENRE=Country
TTITLE0=Liebe wie im Rosengarten
TTITLE1=Auch eine Frau kann durchaus ihren Mann stehen
TTITLE2=Andre Mütter haben auch ein schönes Kind
TTITLE3=Wenn überhaupt
TTITLE4=Du bist das Salz in meiner Suppe
TTITLE5=Männer wollen nur das Eine
TTITLE6=Tanzen mit dem Wind
TTITLE7=Nadelstreifenmann
TTITLE8=Du weißt, was Frauen Lieben
TTITLE9=Das imponiert mir nicht
TTITLE10=Minuten im Fieber
TTITLE11=Dieses Lied sing ich für die Liebe
TTITLE12=Tu´s doch
TTITLE13=Hit-Melody
EXTD=
EXTT0=
EXTT1=
EXTT2=
EXTT3=
EXTT4=
EXTT5=
EXTT6=
EXTT7=
EXTT8=
EXTT9=
EXTT10=
EXTT11=
EXTT12=
EXTT13=
PLAYORDER=
